<svg xmlns="http://www.w3.org/2000/svg" viewBox="0 0 732 1458" width="732" height="1458" font-family="monospace">
<defs>
<filter id="sh" x="-20%" y="-20%" width="140%" height="160%"><feDropShadow dx="0" dy="7" stdDeviation="13" flood-color="#000000" flood-opacity="0.5"/></filter>
</defs>
<g>
<rect x="30" y="26.0" width="672" height="452.5" rx="11" fill="#282828" filter="url(#sh)"/>
<rect x="30" y="26.0" width="672" height="452.5" rx="11" fill="#282828" stroke="#ffffff14" stroke-width="1"/>
<path d="M30 58.0 V37.0 Q30 26.0 41 26.0 H691 Q702 26.0 702 37.0 V58.0 Z" fill="#3c3836"/>
<line x1="30" y1="58.0" x2="702" y2="58.0" stroke="#00000040" stroke-width="1"/>
<circle cx="52" cy="42.0" r="6.4" fill="#ff5f57" stroke="#00000033" stroke-width="0.5"/>
<circle cx="72" cy="42.0" r="6.4" fill="#febc2e" stroke="#00000033" stroke-width="0.5"/>
<circle cx="92" cy="42.0" r="6.4" fill="#28c840" stroke="#00000033" stroke-width="0.5"/>
<text x="366.0" y="46.0" text-anchor="middle" font-family="-apple-system,'Segoe UI',Helvetica,Arial,sans-serif" font-size="12.5" fill="#d5c4a1">Terminal — Gruvbox</text>
<g font-family="'JetBrains Mono','SF Mono','DejaVu Sans Mono',Menlo,Consolas,monospace" font-size="13.5">
<text x="52.0" y="86.0"><tspan fill="#928374">Last login: Fri Jun  5 12:20:08 on ttys000</tspan></text>
<text x="52.0" y="125.0"><tspan fill="#928374">╭─ </tspan><tspan fill="#ff8700">~</tspan></text>
<text x="52.0" y="183.5"><tspan fill="#928374">╭─ </tspan><tspan fill="#ff8700">~/Workspace/lupbuck</tspan></text>
<text x="52.0" y="261.5"><tspan fill="#928374">╭─ </tspan><tspan fill="#ff8700">~/Workspace/lupbuck</tspan></text>
<text x="52.0" y="437.0"><tspan fill="#928374">╭─ </tspan><tspan fill="#ff8700">~/Workspace/lupbuck</tspan></text>
<text x="52.0" y="144.5"><tspan fill="#928374">╰─ </tspan><tspan fill="#b8bb26">❯</tspan><tspan fill="#928374"> </tspan><tspan fill="#ebdbb2">cd </tspan><tspan fill="#ebdbb2" text-decoration="underline">Workspace/lupbuck</tspan></text>
<text x="52.0" y="203.0"><tspan fill="#928374">╰─ </tspan><tspan fill="#b8bb26">❯</tspan><tspan fill="#928374"> </tspan><tspan fill="#ebdbb2">ls</tspan></text>
<text x="52.0" y="281.0"><tspan fill="#928374">╰─ </tspan><tspan fill="#b8bb26">❯</tspan><tspan fill="#928374"> </tspan><tspan fill="#ebdbb2">ls -la</tspan></text>
<text x="52.0" y="456.5"><tspan fill="#928374">╰─ </tspan><tspan fill="#b8bb26">❯</tspan><tspan fill="#928374"> </tspan><tspan fill="#ebdbb2">█</tspan></text>
<path transform="translate(60.1,212.3)" d="M1 2.6 h3.4 l1.3 1.4 h6.9 a1.1 1.1 0 0 1 1.1 1.1 v4.7 a1.1 1.1 0 0 1 -1.1 1.1 h-11.6 a1.1 1.1 0 0 1 -1.1 -1.1 v-6.1 a1.1 1.1 0 0 1 1.1 -1.1 z" fill="#458588"/>
<text x="76.3" y="222.5" fill="#458588">lingolens</text>
<path transform="translate(173.5,212.3)" d="M1 2.6 h3.4 l1.3 1.4 h6.9 a1.1 1.1 0 0 1 1.1 1.1 v4.7 a1.1 1.1 0 0 1 -1.1 1.1 h-11.6 a1.1 1.1 0 0 1 -1.1 -1.1 v-6.1 a1.1 1.1 0 0 1 1.1 -1.1 z" fill="#458588"/>
<text x="189.7" y="222.5" fill="#458588">setup-macos</text>
<path transform="translate(303.1,212.3)" d="M1 2.6 h3.4 l1.3 1.4 h6.9 a1.1 1.1 0 0 1 1.1 1.1 v4.7 a1.1 1.1 0 0 1 -1.1 1.1 h-11.6 a1.1 1.1 0 0 1 -1.1 -1.1 v-6.1 a1.1 1.1 0 0 1 1.1 -1.1 z" fill="#458588"/>
<text x="319.3" y="222.5" fill="#458588">sharelan-main</text>
<text x="52.0" y="300.5"><tspan fill="#83a598">d</tspan><tspan fill="#fabd2f">r</tspan><tspan fill="#fb4934">w</tspan><tspan fill="#b8bb26">x</tspan><tspan fill="#fabd2f">r</tspan><tspan fill="#928374">-</tspan><tspan fill="#b8bb26">x</tspan><tspan fill="#fabd2f">r</tspan><tspan fill="#928374">-</tspan><tspan fill="#b8bb26">x</tspan><tspan fill="#928374"> </tspan><tspan fill="#fabd2f">rudy</tspan><tspan fill="#928374"> </tspan><tspan fill="#a89984">admin</tspan><tspan fill="#928374"> </tspan><tspan fill="#b8bb26"> 192 B</tspan><tspan fill="#928374">  </tspan><tspan fill="#8ec07c">Fri Jun  5 11:36:06 2026</tspan></text>
<path transform="translate(505.6,290.3)" d="M1 2.6 h3.4 l1.3 1.4 h6.9 a1.1 1.1 0 0 1 1.1 1.1 v4.7 a1.1 1.1 0 0 1 -1.1 1.1 h-11.6 a1.1 1.1 0 0 1 -1.1 -1.1 v-6.1 a1.1 1.1 0 0 1 1.1 -1.1 z" fill="#458588"/>
<text x="521.8" y="300.5" fill="#458588">.</text>
<text x="52.0" y="320.0"><tspan fill="#83a598">d</tspan><tspan fill="#fabd2f">r</tspan><tspan fill="#fb4934">w</tspan><tspan fill="#b8bb26">x</tspan><tspan fill="#fabd2f">r</tspan><tspan fill="#928374">-</tspan><tspan fill="#b8bb26">x</tspan><tspan fill="#fabd2f">r</tspan><tspan fill="#928374">-</tspan><tspan fill="#b8bb26">x</tspan><tspan fill="#928374"> </tspan><tspan fill="#fabd2f">rudy</tspan><tspan fill="#928374"> </tspan><tspan fill="#a89984">admin</tspan><tspan fill="#928374"> </tspan><tspan fill="#b8bb26"> 736 B</tspan><tspan fill="#928374">  </tspan><tspan fill="#8ec07c">Fri Jun  5 11:34:38 2026</tspan></text>
<path transform="translate(505.6,309.8)" d="M1 2.6 h3.4 l1.3 1.4 h6.9 a1.1 1.1 0 0 1 1.1 1.1 v4.7 a1.1 1.1 0 0 1 -1.1 1.1 h-11.6 a1.1 1.1 0 0 1 -1.1 -1.1 v-6.1 a1.1 1.1 0 0 1 1.1 -1.1 z" fill="#458588"/>
<text x="521.8" y="320.0" fill="#458588">..</text>
<text x="52.0" y="339.5"><tspan fill="#928374">.</tspan><tspan fill="#fabd2f">r</tspan><tspan fill="#fb4934">w</tspan><tspan fill="#928374">-</tspan><tspan fill="#fabd2f">r</tspan><tspan fill="#928374">-</tspan><tspan fill="#928374">-</tspan><tspan fill="#fabd2f">r</tspan><tspan fill="#928374">-</tspan><tspan fill="#928374">-</tspan><tspan fill="#928374"> </tspan><tspan fill="#fabd2f">rudy</tspan><tspan fill="#928374"> </tspan><tspan fill="#a89984">admin</tspan><tspan fill="#928374"> </tspan><tspan fill="#b8bb26">6.0 KB</tspan><tspan fill="#928374">  </tspan><tspan fill="#8ec07c">Fri Jun  5 11:36:24 2026</tspan></text>
<path transform="translate(505.6,328.1)" d="M1.6 0.6 h5.0 l3.4 3.4 v7.6 a0.9 0.9 0 0 1 -0.9 0.9 h-7.5 a0.9 0.9 0 0 1 -0.9 -0.9 v-10.1 a0.9 0.9 0 0 1 0.9 -0.9 z" fill="#ebdbb2"/><path transform="translate(505.6,328.1)" d="M6.6 0.7 v3.0 a0.6 0.6 0 0 0 0.6 0.6 h3.0" fill="none" stroke="#00000055" stroke-width="0.6"/>
<text x="521.8" y="339.5" fill="#ebdbb2">.DS_Store</text>
<text x="52.0" y="359.0"><tspan fill="#83a598">d</tspan><tspan fill="#fabd2f">r</tspan><tspan fill="#fb4934">w</tspan><tspan fill="#b8bb26">x</tspan><tspan fill="#fabd2f">r</tspan><tspan fill="#928374">-</tspan><tspan fill="#b8bb26">x</tspan><tspan fill="#fabd2f">r</tspan><tspan fill="#928374">-</tspan><tspan fill="#b8bb26">x</tspan><tspan fill="#928374"> </tspan><tspan fill="#fabd2f">rudy</tspan><tspan fill="#928374"> </tspan><tspan fill="#a89984">admin</tspan><tspan fill="#928374"> </tspan><tspan fill="#b8bb26"> 608 B</tspan><tspan fill="#928374">  </tspan><tspan fill="#8ec07c">Fri Jun  5 02:32:53 2026</tspan></text>
<path transform="translate(505.6,348.8)" d="M1 2.6 h3.4 l1.3 1.4 h6.9 a1.1 1.1 0 0 1 1.1 1.1 v4.7 a1.1 1.1 0 0 1 -1.1 1.1 h-11.6 a1.1 1.1 0 0 1 -1.1 -1.1 v-6.1 a1.1 1.1 0 0 1 1.1 -1.1 z" fill="#458588"/>
<text x="521.8" y="359.0" fill="#458588">lingolens</text>
<text x="52.0" y="378.5"><tspan fill="#83a598">d</tspan><tspan fill="#fabd2f">r</tspan><tspan fill="#fb4934">w</tspan><tspan fill="#b8bb26">x</tspan><tspan fill="#fabd2f">r</tspan><tspan fill="#928374">-</tspan><tspan fill="#b8bb26">x</tspan><tspan fill="#fabd2f">r</tspan><tspan fill="#928374">-</tspan><tspan fill="#b8bb26">x</tspan><tspan fill="#928374"> </tspan><tspan fill="#fabd2f">rudy</tspan><tspan fill="#928374"> </tspan><tspan fill="#a89984">admin</tspan><tspan fill="#928374"> </tspan><tspan fill="#b8bb26"> 128 B</tspan><tspan fill="#928374">  </tspan><tspan fill="#8ec07c">Fri Jun  5 11:36:24 2026</tspan></text>
<path transform="translate(505.6,368.3)" d="M1 2.6 h3.4 l1.3 1.4 h6.9 a1.1 1.1 0 0 1 1.1 1.1 v4.7 a1.1 1.1 0 0 1 -1.1 1.1 h-11.6 a1.1 1.1 0 0 1 -1.1 -1.1 v-6.1 a1.1 1.1 0 0 1 1.1 -1.1 z" fill="#458588"/>
<text x="521.8" y="378.5" fill="#458588">setup-macos</text>
<text x="52.0" y="398.0"><tspan fill="#83a598">d</tspan><tspan fill="#fabd2f">r</tspan><tspan fill="#fb4934">w</tspan><tspan fill="#b8bb26">x</tspan><tspan fill="#fabd2f">r</tspan><tspan fill="#928374">-</tspan><tspan fill="#b8bb26">x</tspan><tspan fill="#fabd2f">r</tspan><tspan fill="#928374">-</tspan><tspan fill="#b8bb26">x</tspan><tspan fill="#928374"> </tspan><tspan fill="#fabd2f">rudy</tspan><tspan fill="#928374"> </tspan><tspan fill="#a89984">admin</tspan><tspan fill="#928374"> </tspan><tspan fill="#b8bb26"> 416 B</tspan><tspan fill="#928374">  </tspan><tspan fill="#8ec07c">Tue May 19 02:20:41 2026</tspan></text>
<path transform="translate(505.6,387.8)" d="M1 2.6 h3.4 l1.3 1.4 h6.9 a1.1 1.1 0 0 1 1.1 1.1 v4.7 a1.1 1.1 0 0 1 -1.1 1.1 h-11.6 a1.1 1.1 0 0 1 -1.1 -1.1 v-6.1 a1.1 1.1 0 0 1 1.1 -1.1 z" fill="#458588"/>
<text x="521.8" y="398.0" fill="#458588">sharelan-main</text>
</g>
</g>
<g>
<rect x="30" y="502.5" width="672" height="452.5" rx="11" fill="#1f2430" filter="url(#sh)"/>
<rect x="30" y="502.5" width="672" height="452.5" rx="11" fill="#1f2430" stroke="#ffffff14" stroke-width="1"/>
<path d="M30 534.5 V513.5 Q30 502.5 41 502.5 H691 Q702 502.5 702 513.5 V534.5 Z" fill="#232a36"/>
<line x1="30" y1="534.5" x2="702" y2="534.5" stroke="#00000040" stroke-width="1"/>
<circle cx="52" cy="518.5" r="6.4" fill="#ff5f57" stroke="#00000033" stroke-width="0.5"/>
<circle cx="72" cy="518.5" r="6.4" fill="#febc2e" stroke="#00000033" stroke-width="0.5"/>
<circle cx="92" cy="518.5" r="6.4" fill="#28c840" stroke="#00000033" stroke-width="0.5"/>
<text x="366.0" y="522.5" text-anchor="middle" font-family="-apple-system,'Segoe UI',Helvetica,Arial,sans-serif" font-size="12.5" fill="#b8b9b3">iTerm2 — Ayu Mirage</text>
<g font-family="'JetBrains Mono','SF Mono','DejaVu Sans Mono',Menlo,Consolas,monospace" font-size="13.5">
<text x="52.0" y="562.5"><tspan fill="#5c6773">Last login: Fri Jun  5 12:30:18 on ttys000</tspan></text>
<text x="52.0" y="601.5"><tspan fill="#5c6773">╭─ </tspan><tspan fill="#73d0ff">~</tspan></text>
<text x="52.0" y="660.0"><tspan fill="#5c6773">╭─ </tspan><tspan fill="#73d0ff">~/Workspace/lupbuck</tspan></text>
<text x="52.0" y="738.0"><tspan fill="#5c6773">╭─ </tspan><tspan fill="#73d0ff">~/Workspace/lupbuck</tspan></text>
<text x="52.0" y="913.5"><tspan fill="#5c6773">╭─ </tspan><tspan fill="#73d0ff">~/Workspace/lupbuck</tspan></text>
<text x="52.0" y="621.0"><tspan fill="#5c6773">╰─ </tspan><tspan fill="#bae67e">❯</tspan><tspan fill="#5c6773"> </tspan><tspan fill="#cbccc6">cd </tspan><tspan fill="#cbccc6" text-decoration="underline">Workspace/lupbuck</tspan></text>
<text x="52.0" y="679.5"><tspan fill="#5c6773">╰─ </tspan><tspan fill="#bae67e">❯</tspan><tspan fill="#5c6773"> </tspan><tspan fill="#cbccc6">ls</tspan></text>
<text x="52.0" y="757.5"><tspan fill="#5c6773">╰─ </tspan><tspan fill="#bae67e">❯</tspan><tspan fill="#5c6773"> </tspan><tspan fill="#cbccc6">ls -la</tspan></text>
<text x="52.0" y="933.0"><tspan fill="#5c6773">╰─ </tspan><tspan fill="#bae67e">❯</tspan><tspan fill="#5c6773"> </tspan><tspan fill="#ffcc66">█</tspan></text>
<path transform="translate(60.1,688.8)" d="M1 2.6 h3.4 l1.3 1.4 h6.9 a1.1 1.1 0 0 1 1.1 1.1 v4.7 a1.1 1.1 0 0 1 -1.1 1.1 h-11.6 a1.1 1.1 0 0 1 -1.1 -1.1 v-6.1 a1.1 1.1 0 0 1 1.1 -1.1 z" fill="#73d0ff"/>
<text x="76.3" y="699.0" fill="#73d0ff">lingolens</text>
<path transform="translate(173.5,688.8)" d="M1 2.6 h3.4 l1.3 1.4 h6.9 a1.1 1.1 0 0 1 1.1 1.1 v4.7 a1.1 1.1 0 0 1 -1.1 1.1 h-11.6 a1.1 1.1 0 0 1 -1.1 -1.1 v-6.1 a1.1 1.1 0 0 1 1.1 -1.1 z" fill="#73d0ff"/>
<text x="189.7" y="699.0" fill="#73d0ff">setup-macos</text>
<path transform="translate(303.1,688.8)" d="M1 2.6 h3.4 l1.3 1.4 h6.9 a1.1 1.1 0 0 1 1.1 1.1 v4.7 a1.1 1.1 0 0 1 -1.1 1.1 h-11.6 a1.1 1.1 0 0 1 -1.1 -1.1 v-6.1 a1.1 1.1 0 0 1 1.1 -1.1 z" fill="#73d0ff"/>
<text x="319.3" y="699.0" fill="#73d0ff">sharelan-main</text>
<text x="52.0" y="777.0"><tspan fill="#5ccfe6">d</tspan><tspan fill="#ffd580">r</tspan><tspan fill="#f28779">w</tspan><tspan fill="#bae67e">x</tspan><tspan fill="#ffd580">r</tspan><tspan fill="#5c6773">-</tspan><tspan fill="#bae67e">x</tspan><tspan fill="#ffd580">r</tspan><tspan fill="#5c6773">-</tspan><tspan fill="#bae67e">x</tspan><tspan fill="#5c6773"> </tspan><tspan fill="#ffd580">rudy</tspan><tspan fill="#5c6773"> </tspan><tspan fill="#707a8c">admin</tspan><tspan fill="#5c6773"> </tspan><tspan fill="#bae67e"> 192 B</tspan><tspan fill="#5c6773">  </tspan><tspan fill="#95e6cb">Fri Jun  5 11:36:06 2026</tspan></text>
<path transform="translate(505.6,766.8)" d="M1 2.6 h3.4 l1.3 1.4 h6.9 a1.1 1.1 0 0 1 1.1 1.1 v4.7 a1.1 1.1 0 0 1 -1.1 1.1 h-11.6 a1.1 1.1 0 0 1 -1.1 -1.1 v-6.1 a1.1 1.1 0 0 1 1.1 -1.1 z" fill="#73d0ff"/>
<text x="521.8" y="777.0" fill="#73d0ff">.</text>
<text x="52.0" y="796.5"><tspan fill="#5ccfe6">d</tspan><tspan fill="#ffd580">r</tspan><tspan fill="#f28779">w</tspan><tspan fill="#bae67e">x</tspan><tspan fill="#ffd580">r</tspan><tspan fill="#5c6773">-</tspan><tspan fill="#bae67e">x</tspan><tspan fill="#ffd580">r</tspan><tspan fill="#5c6773">-</tspan><tspan fill="#bae67e">x</tspan><tspan fill="#5c6773"> </tspan><tspan fill="#ffd580">rudy</tspan><tspan fill="#5c6773"> </tspan><tspan fill="#707a8c">admin</tspan><tspan fill="#5c6773"> </tspan><tspan fill="#bae67e"> 736 B</tspan><tspan fill="#5c6773">  </tspan><tspan fill="#95e6cb">Fri Jun  5 11:34:38 2026</tspan></text>
<path transform="translate(505.6,786.3)" d="M1 2.6 h3.4 l1.3 1.4 h6.9 a1.1 1.1 0 0 1 1.1 1.1 v4.7 a1.1 1.1 0 0 1 -1.1 1.1 h-11.6 a1.1 1.1 0 0 1 -1.1 -1.1 v-6.1 a1.1 1.1 0 0 1 1.1 -1.1 z" fill="#73d0ff"/>
<text x="521.8" y="796.5" fill="#73d0ff">..</text>
<text x="52.0" y="816.0"><tspan fill="#5c6773">.</tspan><tspan fill="#ffd580">r</tspan><tspan fill="#f28779">w</tspan><tspan fill="#5c6773">-</tspan><tspan fill="#ffd580">r</tspan><tspan fill="#5c6773">-</tspan><tspan fill="#5c6773">-</tspan><tspan fill="#ffd580">r</tspan><tspan fill="#5c6773">-</tspan><tspan fill="#5c6773">-</tspan><tspan fill="#5c6773"> </tspan><tspan fill="#ffd580">rudy</tspan><tspan fill="#5c6773"> </tspan><tspan fill="#707a8c">admin</tspan><tspan fill="#5c6773"> </tspan><tspan fill="#bae67e">6.0 KB</tspan><tspan fill="#5c6773">  </tspan><tspan fill="#95e6cb">Fri Jun  5 11:36:24 2026</tspan></text>
<path transform="translate(505.6,804.6)" d="M1.6 0.6 h5.0 l3.4 3.4 v7.6 a0.9 0.9 0 0 1 -0.9 0.9 h-7.5 a0.9 0.9 0 0 1 -0.9 -0.9 v-10.1 a0.9 0.9 0 0 1 0.9 -0.9 z" fill="#cbccc6"/><path transform="translate(505.6,804.6)" d="M6.6 0.7 v3.0 a0.6 0.6 0 0 0 0.6 0.6 h3.0" fill="none" stroke="#00000055" stroke-width="0.6"/>
<text x="521.8" y="816.0" fill="#cbccc6">.DS_Store</text>
<text x="52.0" y="835.5"><tspan fill="#5ccfe6">d</tspan><tspan fill="#ffd580">r</tspan><tspan fill="#f28779">w</tspan><tspan fill="#bae67e">x</tspan><tspan fill="#ffd580">r</tspan><tspan fill="#5c6773">-</tspan><tspan fill="#bae67e">x</tspan><tspan fill="#ffd580">r</tspan><tspan fill="#5c6773">-</tspan><tspan fill="#bae67e">x</tspan><tspan fill="#5c6773"> </tspan><tspan fill="#ffd580">rudy</tspan><tspan fill="#5c6773"> </tspan><tspan fill="#707a8c">admin</tspan><tspan fill="#5c6773"> </tspan><tspan fill="#bae67e"> 608 B</tspan><tspan fill="#5c6773">  </tspan><tspan fill="#95e6cb">Fri Jun  5 02:32:53 2026</tspan></text>
<path transform="translate(505.6,825.3)" d="M1 2.6 h3.4 l1.3 1.4 h6.9 a1.1 1.1 0 0 1 1.1 1.1 v4.7 a1.1 1.1 0 0 1 -1.1 1.1 h-11.6 a1.1 1.1 0 0 1 -1.1 -1.1 v-6.1 a1.1 1.1 0 0 1 1.1 -1.1 z" fill="#73d0ff"/>
<text x="521.8" y="835.5" fill="#73d0ff">lingolens</text>
<text x="52.0" y="855.0"><tspan fill="#5ccfe6">d</tspan><tspan fill="#ffd580">r</tspan><tspan fill="#f28779">w</tspan><tspan fill="#bae67e">x</tspan><tspan fill="#ffd580">r</tspan><tspan fill="#5c6773">-</tspan><tspan fill="#bae67e">x</tspan><tspan fill="#ffd580">r</tspan><tspan fill="#5c6773">-</tspan><tspan fill="#bae67e">x</tspan><tspan fill="#5c6773"> </tspan><tspan fill="#ffd580">rudy</tspan><tspan fill="#5c6773"> </tspan><tspan fill="#707a8c">admin</tspan><tspan fill="#5c6773"> </tspan><tspan fill="#bae67e"> 128 B</tspan><tspan fill="#5c6773">  </tspan><tspan fill="#95e6cb">Fri Jun  5 11:36:24 2026</tspan></text>
<path transform="translate(505.6,844.8)" d="M1 2.6 h3.4 l1.3 1.4 h6.9 a1.1 1.1 0 0 1 1.1 1.1 v4.7 a1.1 1.1 0 0 1 -1.1 1.1 h-11.6 a1.1 1.1 0 0 1 -1.1 -1.1 v-6.1 a1.1 1.1 0 0 1 1.1 -1.1 z" fill="#73d0ff"/>
<text x="521.8" y="855.0" fill="#73d0ff">setup-macos</text>
<text x="52.0" y="874.5"><tspan fill="#5ccfe6">d</tspan><tspan fill="#ffd580">r</tspan><tspan fill="#f28779">w</tspan><tspan fill="#bae67e">x</tspan><tspan fill="#ffd580">r</tspan><tspan fill="#5c6773">-</tspan><tspan fill="#bae67e">x</tspan><tspan fill="#ffd580">r</tspan><tspan fill="#5c6773">-</tspan><tspan fill="#bae67e">x</tspan><tspan fill="#5c6773"> </tspan><tspan fill="#ffd580">rudy</tspan><tspan fill="#5c6773"> </tspan><tspan fill="#707a8c">admin</tspan><tspan fill="#5c6773"> </tspan><tspan fill="#bae67e"> 416 B</tspan><tspan fill="#5c6773">  </tspan><tspan fill="#95e6cb">Tue May 19 02:20:41 2026</tspan></text>
<path transform="translate(505.6,864.3)" d="M1 2.6 h3.4 l1.3 1.4 h6.9 a1.1 1.1 0 0 1 1.1 1.1 v4.7 a1.1 1.1 0 0 1 -1.1 1.1 h-11.6 a1.1 1.1 0 0 1 -1.1 -1.1 v-6.1 a1.1 1.1 0 0 1 1.1 -1.1 z" fill="#73d0ff"/>
<text x="521.8" y="874.5" fill="#73d0ff">sharelan-main</text>
</g>
</g>
<g>
<rect x="30" y="979.0" width="672" height="452.5" rx="11" fill="#1a1b26" filter="url(#sh)"/>
<rect x="30" y="979.0" width="672" height="452.5" rx="11" fill="#1a1b26" stroke="#ffffff14" stroke-width="1"/>
<path d="M30 1011.0 V990.0 Q30 979.0 41 979.0 H691 Q702 979.0 702 990.0 V1011.0 Z" fill="#20212e"/>
<line x1="30" y1="1011.0" x2="702" y2="1011.0" stroke="#00000040" stroke-width="1"/>
<circle cx="52" cy="995.0" r="6.4" fill="#ff5f57" stroke="#00000033" stroke-width="0.5"/>
<circle cx="72" cy="995.0" r="6.4" fill="#febc2e" stroke="#00000033" stroke-width="0.5"/>
<circle cx="92" cy="995.0" r="6.4" fill="#28c840" stroke="#00000033" stroke-width="0.5"/>
<text x="366.0" y="999.0" text-anchor="middle" font-family="-apple-system,'Segoe UI',Helvetica,Arial,sans-serif" font-size="12.5" fill="#9aa5ce">Alacritty — Tokyo Night</text>
<g font-family="'JetBrains Mono','SF Mono','DejaVu Sans Mono',Menlo,Consolas,monospace" font-size="13.5">
<text x="52.0" y="1039.0"><tspan fill="#565f89">Last login: Fri Jun  5 12:42:24 on ttys002</tspan></text>
<text x="52.0" y="1078.0"><tspan fill="#565f89">╭─ </tspan><tspan fill="#7aa2f7">~</tspan></text>
<text x="52.0" y="1136.5"><tspan fill="#565f89">╭─ </tspan><tspan fill="#7aa2f7">~/Workspace/lupbuck</tspan></text>
<text x="52.0" y="1214.5"><tspan fill="#565f89">╭─ </tspan><tspan fill="#7aa2f7">~/Workspace/lupbuck</tspan></text>
<text x="52.0" y="1390.0"><tspan fill="#565f89">╭─ </tspan><tspan fill="#7aa2f7">~/Workspace/lupbuck</tspan></text>
<text x="52.0" y="1097.5"><tspan fill="#565f89">╰─ </tspan><tspan fill="#9ece6a">❯</tspan><tspan fill="#565f89"> </tspan><tspan fill="#c0caf5">cd </tspan><tspan fill="#c0caf5" text-decoration="underline">Workspace/lupbuck</tspan></text>
<text x="52.0" y="1156.0"><tspan fill="#565f89">╰─ </tspan><tspan fill="#9ece6a">❯</tspan><tspan fill="#565f89"> </tspan><tspan fill="#c0caf5">ls</tspan></text>
<text x="52.0" y="1234.0"><tspan fill="#565f89">╰─ </tspan><tspan fill="#9ece6a">❯</tspan><tspan fill="#565f89"> </tspan><tspan fill="#c0caf5">ls -la</tspan></text>
<text x="52.0" y="1409.5"><tspan fill="#565f89">╰─ </tspan><tspan fill="#9ece6a">❯</tspan><tspan fill="#565f89"> </tspan><tspan fill="#c0caf5">█</tspan></text>
<path transform="translate(60.1,1165.3)" d="M1 2.6 h3.4 l1.3 1.4 h6.9 a1.1 1.1 0 0 1 1.1 1.1 v4.7 a1.1 1.1 0 0 1 -1.1 1.1 h-11.6 a1.1 1.1 0 0 1 -1.1 -1.1 v-6.1 a1.1 1.1 0 0 1 1.1 -1.1 z" fill="#7aa2f7"/>
<text x="76.3" y="1175.5" fill="#7aa2f7">lingolens</text>
<path transform="translate(173.5,1165.3)" d="M1 2.6 h3.4 l1.3 1.4 h6.9 a1.1 1.1 0 0 1 1.1 1.1 v4.7 a1.1 1.1 0 0 1 -1.1 1.1 h-11.6 a1.1 1.1 0 0 1 -1.1 -1.1 v-6.1 a1.1 1.1 0 0 1 1.1 -1.1 z" fill="#7aa2f7"/>
<text x="189.7" y="1175.5" fill="#7aa2f7">setup-macos</text>
<path transform="translate(303.1,1165.3)" d="M1 2.6 h3.4 l1.3 1.4 h6.9 a1.1 1.1 0 0 1 1.1 1.1 v4.7 a1.1 1.1 0 0 1 -1.1 1.1 h-11.6 a1.1 1.1 0 0 1 -1.1 -1.1 v-6.1 a1.1 1.1 0 0 1 1.1 -1.1 z" fill="#7aa2f7"/>
<text x="319.3" y="1175.5" fill="#7aa2f7">sharelan-main</text>
<text x="52.0" y="1253.5"><tspan fill="#7dcfff">d</tspan><tspan fill="#e0af68">r</tspan><tspan fill="#f7768e">w</tspan><tspan fill="#9ece6a">x</tspan><tspan fill="#e0af68">r</tspan><tspan fill="#565f89">-</tspan><tspan fill="#9ece6a">x</tspan><tspan fill="#e0af68">r</tspan><tspan fill="#565f89">-</tspan><tspan fill="#9ece6a">x</tspan><tspan fill="#565f89"> </tspan><tspan fill="#e0af68">rudy</tspan><tspan fill="#565f89"> </tspan><tspan fill="#737aa2">admin</tspan><tspan fill="#565f89"> </tspan><tspan fill="#9ece6a"> 192 B</tspan><tspan fill="#565f89">  </tspan><tspan fill="#7dcfff">Fri Jun  5 11:36:06 2026</tspan></text>
<path transform="translate(505.6,1243.3)" d="M1 2.6 h3.4 l1.3 1.4 h6.9 a1.1 1.1 0 0 1 1.1 1.1 v4.7 a1.1 1.1 0 0 1 -1.1 1.1 h-11.6 a1.1 1.1 0 0 1 -1.1 -1.1 v-6.1 a1.1 1.1 0 0 1 1.1 -1.1 z" fill="#7aa2f7"/>
<text x="521.8" y="1253.5" fill="#7aa2f7">.</text>
<text x="52.0" y="1273.0"><tspan fill="#7dcfff">d</tspan><tspan fill="#e0af68">r</tspan><tspan fill="#f7768e">w</tspan><tspan fill="#9ece6a">x</tspan><tspan fill="#e0af68">r</tspan><tspan fill="#565f89">-</tspan><tspan fill="#9ece6a">x</tspan><tspan fill="#e0af68">r</tspan><tspan fill="#565f89">-</tspan><tspan fill="#9ece6a">x</tspan><tspan fill="#565f89"> </tspan><tspan fill="#e0af68">rudy</tspan><tspan fill="#565f89"> </tspan><tspan fill="#737aa2">admin</tspan><tspan fill="#565f89"> </tspan><tspan fill="#9ece6a"> 736 B</tspan><tspan fill="#565f89">  </tspan><tspan fill="#7dcfff">Fri Jun  5 11:34:38 2026</tspan></text>
<path transform="translate(505.6,1262.8)" d="M1 2.6 h3.4 l1.3 1.4 h6.9 a1.1 1.1 0 0 1 1.1 1.1 v4.7 a1.1 1.1 0 0 1 -1.1 1.1 h-11.6 a1.1 1.1 0 0 1 -1.1 -1.1 v-6.1 a1.1 1.1 0 0 1 1.1 -1.1 z" fill="#7aa2f7"/>
<text x="521.8" y="1273.0" fill="#7aa2f7">..</text>
<text x="52.0" y="1292.5"><tspan fill="#565f89">.</tspan><tspan fill="#e0af68">r</tspan><tspan fill="#f7768e">w</tspan><tspan fill="#565f89">-</tspan><tspan fill="#e0af68">r</tspan><tspan fill="#565f89">-</tspan><tspan fill="#565f89">-</tspan><tspan fill="#e0af68">r</tspan><tspan fill="#565f89">-</tspan><tspan fill="#565f89">-</tspan><tspan fill="#565f89"> </tspan><tspan fill="#e0af68">rudy</tspan><tspan fill="#565f89"> </tspan><tspan fill="#737aa2">admin</tspan><tspan fill="#565f89"> </tspan><tspan fill="#9ece6a">6.0 KB</tspan><tspan fill="#565f89">  </tspan><tspan fill="#7dcfff">Fri Jun  5 11:36:24 2026</tspan></text>
<path transform="translate(505.6,1281.1)" d="M1.6 0.6 h5.0 l3.4 3.4 v7.6 a0.9 0.9 0 0 1 -0.9 0.9 h-7.5 a0.9 0.9 0 0 1 -0.9 -0.9 v-10.1 a0.9 0.9 0 0 1 0.9 -0.9 z" fill="#c0caf5"/><path transform="translate(505.6,1281.1)" d="M6.6 0.7 v3.0 a0.6 0.6 0 0 0 0.6 0.6 h3.0" fill="none" stroke="#00000055" stroke-width="0.6"/>
<text x="521.8" y="1292.5" fill="#c0caf5">.DS_Store</text>
<text x="52.0" y="1312.0"><tspan fill="#7dcfff">d</tspan><tspan fill="#e0af68">r</tspan><tspan fill="#f7768e">w</tspan><tspan fill="#9ece6a">x</tspan><tspan fill="#e0af68">r</tspan><tspan fill="#565f89">-</tspan><tspan fill="#9ece6a">x</tspan><tspan fill="#e0af68">r</tspan><tspan fill="#565f89">-</tspan><tspan fill="#9ece6a">x</tspan><tspan fill="#565f89"> </tspan><tspan fill="#e0af68">rudy</tspan><tspan fill="#565f89"> </tspan><tspan fill="#737aa2">admin</tspan><tspan fill="#565f89"> </tspan><tspan fill="#9ece6a"> 608 B</tspan><tspan fill="#565f89">  </tspan><tspan fill="#7dcfff">Fri Jun  5 02:32:53 2026</tspan></text>
<path transform="translate(505.6,1301.8)" d="M1 2.6 h3.4 l1.3 1.4 h6.9 a1.1 1.1 0 0 1 1.1 1.1 v4.7 a1.1 1.1 0 0 1 -1.1 1.1 h-11.6 a1.1 1.1 0 0 1 -1.1 -1.1 v-6.1 a1.1 1.1 0 0 1 1.1 -1.1 z" fill="#7aa2f7"/>
<text x="521.8" y="1312.0" fill="#7aa2f7">lingolens</text>
<text x="52.0" y="1331.5"><tspan fill="#7dcfff">d</tspan><tspan fill="#e0af68">r</tspan><tspan fill="#f7768e">w</tspan><tspan fill="#9ece6a">x</tspan><tspan fill="#e0af68">r</tspan><tspan fill="#565f89">-</tspan><tspan fill="#9ece6a">x</tspan><tspan fill="#e0af68">r</tspan><tspan fill="#565f89">-</tspan><tspan fill="#9ece6a">x</tspan><tspan fill="#565f89"> </tspan><tspan fill="#e0af68">rudy</tspan><tspan fill="#565f89"> </tspan><tspan fill="#737aa2">admin</tspan><tspan fill="#565f89"> </tspan><tspan fill="#9ece6a"> 128 B</tspan><tspan fill="#565f89">  </tspan><tspan fill="#7dcfff">Fri Jun  5 11:36:24 2026</tspan></text>
<path transform="translate(505.6,1321.3)" d="M1 2.6 h3.4 l1.3 1.4 h6.9 a1.1 1.1 0 0 1 1.1 1.1 v4.7 a1.1 1.1 0 0 1 -1.1 1.1 h-11.6 a1.1 1.1 0 0 1 -1.1 -1.1 v-6.1 a1.1 1.1 0 0 1 1.1 -1.1 z" fill="#7aa2f7"/>
<text x="521.8" y="1331.5" fill="#7aa2f7">setup-macos</text>
<text x="52.0" y="1351.0"><tspan fill="#7dcfff">d</tspan><tspan fill="#e0af68">r</tspan><tspan fill="#f7768e">w</tspan><tspan fill="#9ece6a">x</tspan><tspan fill="#e0af68">r</tspan><tspan fill="#565f89">-</tspan><tspan fill="#9ece6a">x</tspan><tspan fill="#e0af68">r</tspan><tspan fill="#565f89">-</tspan><tspan fill="#9ece6a">x</tspan><tspan fill="#565f89"> </tspan><tspan fill="#e0af68">rudy</tspan><tspan fill="#565f89"> </tspan><tspan fill="#737aa2">admin</tspan><tspan fill="#565f89"> </tspan><tspan fill="#9ece6a"> 416 B</tspan><tspan fill="#565f89">  </tspan><tspan fill="#7dcfff">Tue May 19 02:20:41 2026</tspan></text>
<path transform="translate(505.6,1340.8)" d="M1 2.6 h3.4 l1.3 1.4 h6.9 a1.1 1.1 0 0 1 1.1 1.1 v4.7 a1.1 1.1 0 0 1 -1.1 1.1 h-11.6 a1.1 1.1 0 0 1 -1.1 -1.1 v-6.1 a1.1 1.1 0 0 1 1.1 -1.1 z" fill="#7aa2f7"/>
<text x="521.8" y="1351.0" fill="#7aa2f7">sharelan-main</text>
</g>
</g>
</svg>